<?xml version="1.0" encoding="UTF-8"?>
<svg width="50px" height="40px" viewBox="0 0 50 40" version="1.1" xmlns="http://www.w3.org/2000/svg" xmlns:xlink="http://www.w3.org/1999/xlink">
    <!-- Generator: Sketch 51.3 (57544) - http://www.bohemiancoding.com/sketch -->
    <title>dark-cube</title>
    <desc>Created with Sketch.</desc>
    <defs></defs>
    <g id="dark-cube" stroke="none" stroke-width="1" fill="none" fill-rule="evenodd">
        <path d="M44.0196348,10.3708272 C44.0196348,9.70093688 43.6409673,9.08860227 43.0412994,8.78960165 L25.7987079,0.185917054 C25.3020402,-0.0619723513 24.7177057,-0.0619723513 24.2209268,0.185917054 L6.97811315,8.78960165 C6.37877857,9.08860227 6,9.6659368 6,10.3920494 C6,11.1180509 6,29.5265337 6,29.5265337 C6,30.1933129 6.37555634,30.8033142 6.97066869,31.1038704 L24.2133713,39.8103329 C24.4643718,39.9372221 24.7372613,40 25.0095952,40 C25.4387072,40 25.8778192,39.7731106 25.8777081,39.7742218 L43.0489661,31.1037592 C43.6441895,30.8032031 44.0196348,30.1932018 44.0196348,29.5264226 C44.0196348,29.5266448 44.0196348,10.3879383 44.0196348,10.3708272 Z M25.0098174,3.74203557 L38.2945117,10.3708272 L25.0098174,16.9995076 L11.725123,10.3708272 L25.0098174,3.74203557 Z M9.53422959,13.2273887 L23.2427026,20.067514 L23.2427026,35.3612126 L9.53422959,28.4393092 L9.53422959,13.2273887 Z M40.4854052,28.4393092 L26.7769322,35.3612126 L26.7769322,20.067514 L40.4855163,13.2273887 L40.4855163,28.4393092 L40.4854052,28.4393092 Z" id="Shape" fill="#FFFFFF" fill-rule="nonzero"></path>
    </g>
</svg>