<?xml version="1.0" encoding="UTF-8"?>
<svg width="256px" height="256px" viewBox="0 0 256 256" version="1.1" xmlns="http://www.w3.org/2000/svg" xmlns:xlink="http://www.w3.org/1999/xlink">
    <!-- Generator: Sketch 54.1 (76490) - https://sketchapp.com -->
    <title>tesserak</title>
    <desc>Created with Sketch.</desc>
    <defs>
        <radialGradient cx="51.0848999%" cy="50%" fx="51.0848999%" fy="50%" r="33.3829554%" gradientTransform="translate(0.510849,0.500000),scale(0.637681,1.000000),rotate(-90.000000),scale(1.000000,1.867794),translate(-0.510849,-0.500000)" id="radialGradient-1">
            <stop stop-color="#000000" offset="0%"></stop>
            <stop stop-color="#FFFFFF" stop-opacity="0" offset="100%"></stop>
        </radialGradient>
        <path d="M36.627462,26.6703528 C53.7261138,43.803347 44.9192332,48.4398953 36.627462,56.7437175 L19.2184941,74.1789249 C14.0580235,79.3463044 6.89574,81.29973 0.228243074,80.0337224 C8.21438775,67.9976435 12.2094147,54.0864316 12.2094147,40.2088866 C12.2094147,26.1872811 8.13231476,12.1562804 0,0.0332953331 C5.83191051,-0.292406164 11.7654358,1.77141385 16.2200743,6.22632115 L36.627462,26.6703528 Z" id="path-2"></path>
        <linearGradient x1="18.2692308%" y1="45.9141156%" x2="62.9807692%" y2="57.0821995%" id="linearGradient-4">
            <stop stop-color="#16BBD2" offset="0%"></stop>
            <stop stop-color="#1128A7" offset="100%"></stop>
        </linearGradient>
    </defs>
    <g id="tesserak" stroke="none" stroke-width="1" fill="none" fill-rule="evenodd">
        <g id="Group-2" transform="translate(23.000000, 4.000000)">
            <g id="pesce" transform="translate(45.000000, 68.000000)">
                <ellipse id="Oval" fill="url(#radialGradient-1)" cx="57.5" cy="103.333333" rx="57.5" ry="36.6666667"></ellipse>
                <g id="Group" transform="translate(11.057692, 0.000000)">
                    <g id="occhio" transform="translate(49.986687, 8.683134)">
                        <mask id="mask-3" fill="white">
                            <use xlink:href="#path-2"></use>
                        </mask>
                        <use id="Mask" fill="#0055AA" fill-rule="nonzero" xlink:href="#path-2"></use>
                        <path d="M24.5008665,48.4454552 C20.2738089,48.4454552 16.8406812,44.9995959 16.8406812,40.758179 C16.8406812,36.5058747 20.2738089,33.0646812 24.5008665,33.0646812 C28.7364532,33.0646812 32.17811,36.5058747 32.17811,40.758179 C32.17811,44.9995959 28.7364532,48.4454552 24.5008665,48.4454552 Z" fill="#FFFFFF" fill-rule="nonzero" mask="url(#mask-3)"></path>
                    </g>
                    <path d="M34.7428972,0 C48.2326585,13.5025187 54.9751945,31.2047076 54.9751945,48.8920206 C54.9751945,66.5707214 48.2326585,84.2776078 34.7428972,97.7777778 L31.1363519,94.1653099 C34.4701005,90.8323505 37.3387657,87.2316265 39.779867,83.4179436 C39.5813271,83.2370858 39.3780975,83.0624907 39.181121,82.862059 L35.4471663,79.2691644 C40.853076,69.8982002 43.5654108,59.3794518 43.5654108,48.8920206 C43.5654108,37.7398765 40.5075855,26.568942 34.4075682,16.7626653 L36.1850464,14.9094552 C36.9815504,14.1061626 37.8390234,13.4038687 38.7261992,12.7673416 C36.5203753,9.54007831 34.0011088,6.46861935 31.1363519,3.61246791 L34.7428972,0 Z" id="pinna" fill="#0055AA" fill-rule="nonzero"></path>
                    <path d="M22.8398906,11.8332986 C31.8390576,22.551696 36.3437219,35.7747065 36.3437219,48.9781436 C36.3437219,62.1134655 31.8961182,75.262097 22.9970028,85.9382155 L19.33965,82.3688094 C22.3107118,78.7524265 24.715857,74.8353963 26.572282,70.7359422 L12.2664752,56.9836671 C11.323802,61.6256959 9.58149829,66.1479357 7.00360782,70.3014126 L0.119592871,63.5579826 C2.52942804,59.0153867 3.73629971,54.0210361 3.73629971,48.9883218 C3.73629971,48.9155087 3.73239146,48.838781 3.73239146,48.7683167 L3.72457491,48.7597044 L3.73239146,48.752658 C3.68940055,43.7309048 2.44500952,38.7349885 7.10542736e-15,34.2041364 L6.87619845,27.4810627 C9.34856578,31.4114027 11.0627301,35.6666613 12.0577739,40.0612825 L25.8383102,25.7014486 C24.0608321,22.0811513 21.8471917,18.6260536 19.1887911,15.4050539 L22.8398906,11.8332986 Z" id="coda" fill="#0055AA" fill-rule="nonzero"></path>
                </g>
            </g>
            <g id="cube" transform="translate(0.000000, 0.000000)" fill-opacity="0.7" fill-rule="nonzero">
                <polygon id="rect4447" fill="#3490E2" points="0 54.089422 105 124 105 248 0 177.487063"></polygon>
                <polygon id="rect4447-copy" fill="#06509A" transform="translate(157.500000, 151.044711) scale(-1, 1) translate(-157.500000, -151.044711) " points="105 54.089422 210 124 210 248 105 177.487063"></polygon>
                <polygon id="path4450" fill="url(#linearGradient-4)" points="105 0 210 54.089422 105 124 0 54.25"></polygon>
            </g>
        </g>
    </g>
</svg>